<?xml version="1.0" encoding="UTF-8" standalone="no"?>
<!DOCTYPE svg PUBLIC "-//W3C//DTD SVG 1.1//EN"
 "http://www.w3.org/Graphics/SVG/1.1/DTD/svg11.dtd">
<!-- Generated by graphviz version 2.38.0 (20140413.2041)
 -->
<!-- Title: Control&#45;flow graph for function &#39;main(argc, **argv)&#39;. Pages: 1 -->
<svg width="1161pt" height="748pt"
 viewBox="0.00 0.00 1161.00 748.00" xmlns="http://www.w3.org/2000/svg" xmlns:xlink="http://www.w3.org/1999/xlink">
<g id="graph0" class="graph" transform="scale(1 1) rotate(0) translate(4 744)">
<title>Control&#45;flow graph for function &#39;main(argc, **argv)&#39;.</title>
<polygon fill="white" stroke="none" points="-4,4 -4,-744 1157,-744 1157,4 -4,4"/>
<text text-anchor="middle" x="576.5" y="-7.8" font-family="Times,serif" font-size="14.00">Control&#45;flow graph for function &#39;main(argc, **argv)&#39;.</text>
<!-- Node0x1d2f6a0 -->
<g id="node1" class="node"><title>Node0x1d2f6a0</title>
<polygon fill="none" stroke="black" points="367.5,-686.5 367.5,-739.5 426.5,-739.5 426.5,-686.5 367.5,-686.5"/>
<text text-anchor="start" x="375.5" y="-724.3" font-family="Times,serif" font-size="14.00">entry:</text>
<text text-anchor="start" x="375.5" y="-709.3" font-family="Times,serif" font-size="14.00"> argc</text>
<text text-anchor="start" x="375.5" y="-694.3" font-family="Times,serif" font-size="14.00"> argv</text>
</g>
<!-- Node0x1cc6280 -->
<g id="node2" class="node"><title>Node0x1cc6280</title>
<polygon fill="none" stroke="black" points="271.5,-535.5 271.5,-648.5 522.5,-648.5 522.5,-535.5 271.5,-535.5"/>
<text text-anchor="start" x="279.5" y="-633.3" font-family="Times,serif" font-size="14.00">file = fopen(&quot;/dev/urandom&quot;, &quot;r&quot;)</text>
<text text-anchor="start" x="279.5" y="-618.3" font-family="Times,serif" font-size="14.00"> str2</text>
<text text-anchor="start" x="279.5" y="-603.3" font-family="Times,serif" font-size="14.00"> fscanf(file, &quot;%20s&quot;, &amp;(str2))</text>
<text text-anchor="start" x="279.5" y="-588.3" font-family="Times,serif" font-size="14.00"> fclose(file)</text>
<text text-anchor="start" x="279.5" y="-573.3" font-family="Times,serif" font-size="14.00"> printf(&quot;Enter the password: &quot;)</text>
<text text-anchor="start" x="279.5" y="-558.3" font-family="Times,serif" font-size="14.00"> str</text>
<text text-anchor="start" x="279.5" y="-543.3" font-family="Times,serif" font-size="14.00"> scanf(&quot;%99s&quot;, &amp;(str))</text>
</g>
<!-- Node0x1d2f6a0&#45;&gt;Node0x1cc6280 -->
<g id="edge1" class="edge"><title>Node0x1d2f6a0&#45;&gt;Node0x1cc6280</title>
<path fill="none" stroke="black" d="M397,-686.472C397,-678.26 397,-668.751 397,-659.006"/>
<polygon fill="black" stroke="black" points="400.5,-658.81 397,-648.81 393.5,-658.81 400.5,-658.81"/>
</g>
<!-- Node0x1d2c010 -->
<g id="node3" class="node"><title>Node0x1d2c010</title>
<polygon fill="none" stroke="black" points="125,-459.5 125,-497.5 669,-497.5 669,-459.5 125,-459.5"/>
<text text-anchor="start" x="133" y="-482.3" font-family="Times,serif" font-size="14.00">if (strcmp(BitCastExpr&lt;ptr&gt;(&amp;(str)), BitCastExpr&lt;ptr&gt;(&amp;(str2))) == 0):</text>
<text text-anchor="start" x="133" y="-467.3" font-family="Times,serif" font-size="14.00"> else:</text>
</g>
<!-- Node0x1cc6280&#45;&gt;Node0x1d2c010 -->
<g id="edge2" class="edge"><title>Node0x1cc6280&#45;&gt;Node0x1d2c010</title>
<path fill="none" stroke="black" d="M397,-535.25C397,-525.862 397,-516.474 397,-508.151"/>
<polygon fill="black" stroke="black" points="400.5,-507.912 397,-497.912 393.5,-507.912 400.5,-507.912"/>
</g>
<!-- Node0x1d23fe0 -->
<g id="node4" class="node"><title>Node0x1d23fe0</title>
<polygon fill="none" stroke="black" points="0,-339.5 0,-407.5 376,-407.5 376,-339.5 0,-339.5"/>
<text text-anchor="start" x="8" y="-392.3" font-family="Times,serif" font-size="14.00">0x8048671:</text>
<text text-anchor="start" x="8" y="-377.3" font-family="Times,serif" font-size="14.00"> printf(&quot;Correct password!! The flag is flag{&quot;)</text>
<text text-anchor="start" x="8" y="-362.3" font-family="Times,serif" font-size="14.00"> puts(&quot;kH9h9skyxrgSZeN3oaqGnNo4amNJvhOa&quot;)</text>
<text text-anchor="start" x="8" y="-347.3" font-family="Times,serif" font-size="14.00"> puts(&quot;}\n&quot;)</text>
</g>
<!-- Node0x1d2c010&#45;&gt;Node0x1d23fe0 -->
<g id="edge3" class="edge"><title>Node0x1d2c010&#45;&gt;Node0x1d23fe0</title>
<path fill="none" stroke="black" d="M170.938,-459.434C155.578,-454.612 143.579,-448.568 137,-441 130.055,-433.012 131.176,-424.194 136.34,-415.662"/>
<polygon fill="black" stroke="black" points="139.184,-417.703 142.397,-407.607 133.59,-413.495 139.184,-417.703"/>
<text text-anchor="middle" x="386.5" y="-429.8" font-family="Times,serif" font-size="14.00">strcmp(BitCastExpr&lt;ptr&gt;(&amp;(str)), BitCastExpr&lt;ptr&gt;(&amp;(str2))) == 0</text>
</g>
<!-- Node0x1d1bd70 -->
<g id="node5" class="node"><title>Node0x1d1bd70</title>
<polygon fill="none" stroke="black" points="497,-354.5 497,-392.5 715,-392.5 715,-354.5 497,-354.5"/>
<text text-anchor="start" x="505" y="-377.3" font-family="Times,serif" font-size="14.00">0x80486a3:</text>
<text text-anchor="start" x="505" y="-362.3" font-family="Times,serif" font-size="14.00"> printf(&quot;Wrong password!!&quot;)</text>
</g>
<!-- Node0x1d2c010&#45;&gt;Node0x1d1bd70 -->
<g id="edge4" class="edge"><title>Node0x1d2c010&#45;&gt;Node0x1d1bd70</title>
<path fill="none" stroke="black" d="M601.443,-459.353C617.192,-454.575 629.505,-448.562 636,-441 645.951,-429.414 639.871,-413.988 630.655,-400.91"/>
<polygon fill="black" stroke="black" points="633.185,-398.463 624.282,-392.719 627.66,-402.761 633.185,-398.463"/>
<text text-anchor="middle" x="887.5" y="-429.8" font-family="Times,serif" font-size="14.00">strcmp(BitCastExpr&lt;ptr&gt;(&amp;(str)), BitCastExpr&lt;ptr&gt;(&amp;(str2))) != 0</text>
</g>
<!-- Node0x1cc1300 -->
<g id="node6" class="node"><title>Node0x1cc1300</title>
<polygon fill="none" stroke="black" points="186.5,-263.5 186.5,-301.5 703.5,-301.5 703.5,-263.5 186.5,-263.5"/>
<text text-anchor="start" x="194.5" y="-286.3" font-family="Times,serif" font-size="14.00">0x80486b3:</text>
<text text-anchor="start" x="194.5" y="-271.3" font-family="Times,serif" font-size="14.00"> if (*(IntToPtrCastExpr&lt;ptr&gt;(20)) != *(IntToPtrCastExpr&lt;ptr&gt;(20))):</text>
</g>
<!-- Node0x1d23fe0&#45;&gt;Node0x1cc1300 -->
<g id="edge5" class="edge"><title>Node0x1d23fe0&#45;&gt;Node0x1cc1300</title>
<path fill="none" stroke="black" d="M283.332,-339.486C316.717,-327.925 353.309,-315.253 383.224,-304.893"/>
<polygon fill="black" stroke="black" points="384.385,-308.195 392.689,-301.615 382.094,-301.581 384.385,-308.195"/>
</g>
<!-- Node0x1d1bd70&#45;&gt;Node0x1cc1300 -->
<g id="edge6" class="edge"><title>Node0x1d1bd70&#45;&gt;Node0x1cc1300</title>
<path fill="none" stroke="black" d="M573.419,-354.49C548.406,-340.662 513.688,-321.47 486.656,-306.527"/>
<polygon fill="black" stroke="black" points="488.253,-303.411 477.808,-301.636 484.867,-309.537 488.253,-303.411"/>
</g>
<!-- Node0x1d1bdd0 -->
<g id="node7" class="node"><title>Node0x1d1bdd0</title>
<polygon fill="none" stroke="black" points="315.5,-173.5 315.5,-211.5 464.5,-211.5 464.5,-173.5 315.5,-173.5"/>
<text text-anchor="start" x="323.5" y="-196.3" font-family="Times,serif" font-size="14.00">0x80486c4:</text>
<text text-anchor="start" x="323.5" y="-181.3" font-family="Times,serif" font-size="14.00"> __stack_chk_fail()</text>
</g>
<!-- Node0x1cc1300&#45;&gt;Node0x1d1bdd0 -->
<g id="edge7" class="edge"><title>Node0x1cc1300&#45;&gt;Node0x1d1bdd0</title>
<path fill="none" stroke="black" d="M239.705,-263.41C223.89,-258.622 211.524,-252.591 205,-245 200.655,-239.944 200.767,-235.15 205,-230 218.087,-214.079 263.05,-204.99 305.369,-199.863"/>
<polygon fill="black" stroke="black" points="305.942,-203.321 315.479,-198.705 305.145,-196.366 305.942,-203.321"/>
<text text-anchor="middle" x="438.5" y="-233.8" font-family="Times,serif" font-size="14.00">*(IntToPtrCastExpr&lt;ptr&gt;(20)) != *(IntToPtrCastExpr&lt;ptr&gt;(20))</text>
</g>
<!-- Node0x1d23f80 -->
<g id="node8" class="node"><title>Node0x1d23f80</title>
<polygon fill="none" stroke="black" points="555.5,-97.5 555.5,-135.5 656.5,-135.5 656.5,-97.5 555.5,-97.5"/>
<text text-anchor="start" x="563.5" y="-120.3" font-family="Times,serif" font-size="14.00">0x80486c9:</text>
<text text-anchor="start" x="563.5" y="-105.3" font-family="Times,serif" font-size="14.00"> return 0</text>
</g>
<!-- Node0x1cc1300&#45;&gt;Node0x1d23f80 -->
<g id="edge8" class="edge"><title>Node0x1cc1300&#45;&gt;Node0x1d23f80</title>
<path fill="none" stroke="black" d="M636.832,-263.388C652.925,-258.617 665.528,-252.596 672,-245 698.711,-213.651 663.445,-169.654 635.08,-142.396"/>
<polygon fill="black" stroke="black" points="637.393,-139.766 627.69,-135.51 632.621,-144.888 637.393,-139.766"/>
<text text-anchor="middle" x="916.5" y="-188.8" font-family="Times,serif" font-size="14.00">*(IntToPtrCastExpr&lt;ptr&gt;(20)) == *(IntToPtrCastExpr&lt;ptr&gt;(20))</text>
</g>
<!-- Node0x1d1bdd0&#45;&gt;Node0x1d23f80 -->
<g id="edge9" class="edge"><title>Node0x1d1bdd0&#45;&gt;Node0x1d23f80</title>
<path fill="none" stroke="black" d="M442.563,-173.492C473.685,-162.83 513.232,-149.282 545.63,-138.182"/>
<polygon fill="black" stroke="black" points="547.111,-141.375 555.437,-134.823 544.842,-134.753 547.111,-141.375"/>
</g>
<!-- Node0x1cc6100 -->
<g id="node9" class="node"><title>Node0x1cc6100</title>
<polygon fill="none" stroke="black" points="579,-23.5 579,-59.5 633,-59.5 633,-23.5 579,-23.5"/>
<text text-anchor="start" x="587" y="-37.8" font-family="Times,serif" font-size="14.00">exit:</text>
</g>
<!-- Node0x1d23f80&#45;&gt;Node0x1cc6100 -->
<g id="edge10" class="edge"><title>Node0x1d23f80&#45;&gt;Node0x1cc6100</title>
<path fill="none" stroke="black" d="M606,-97.4551C606,-89.2008 606,-79.2377 606,-70.0742"/>
<polygon fill="black" stroke="black" points="609.5,-69.8347 606,-59.8347 602.5,-69.8347 609.5,-69.8347"/>
</g>
</g>
</svg>
