<?xml version="1.0" encoding="UTF-8" standalone="no"?>
<!DOCTYPE svg PUBLIC "-//W3C//DTD SVG 1.1//EN"
 "http://www.w3.org/Graphics/SVG/1.1/DTD/svg11.dtd">
<!-- Generated by graphviz version 2.38.0 (20140413.2041)
 -->
<!-- Title: Control&#45;flow graph for function &#39;main(argc, **argv)&#39;. Pages: 1 -->
<svg width="1158pt" height="1549pt"
 viewBox="0.00 0.00 1158.00 1549.00" xmlns="http://www.w3.org/2000/svg" xmlns:xlink="http://www.w3.org/1999/xlink">
<g id="graph0" class="graph" transform="scale(1 1) rotate(0) translate(4 1545)">
<title>Control&#45;flow graph for function &#39;main(argc, **argv)&#39;.</title>
<polygon fill="white" stroke="none" points="-4,4 -4,-1545 1154,-1545 1154,4 -4,4"/>
<text text-anchor="middle" x="575" y="-7.8" font-family="Times,serif" font-size="14.00">Control&#45;flow graph for function &#39;main(argc, **argv)&#39;.</text>
<!-- Node0x1ec1e20 -->
<g id="node1" class="node"><title>Node0x1ec1e20</title>
<polygon fill="none" stroke="black" points="218.5,-1487.5 218.5,-1540.5 277.5,-1540.5 277.5,-1487.5 218.5,-1487.5"/>
<text text-anchor="start" x="226.5" y="-1525.3" font-family="Times,serif" font-size="14.00">entry:</text>
<text text-anchor="start" x="226.5" y="-1510.3" font-family="Times,serif" font-size="14.00"> argc</text>
<text text-anchor="start" x="226.5" y="-1495.3" font-family="Times,serif" font-size="14.00"> argv</text>
</g>
<!-- Node0x1ec1c80 -->
<g id="node2" class="node"><title>Node0x1ec1c80</title>
<polygon fill="none" stroke="black" points="144,-1261.5 144,-1449.5 352,-1449.5 352,-1261.5 144,-1261.5"/>
<text text-anchor="start" x="152" y="-1434.3" font-family="Times,serif" font-size="14.00">str3</text>
<text text-anchor="start" x="152" y="-1419.3" font-family="Times,serif" font-size="14.00"> str</text>
<text text-anchor="start" x="152" y="-1404.3" font-family="Times,serif" font-size="14.00"> format</text>
<text text-anchor="start" x="152" y="-1389.3" font-family="Times,serif" font-size="14.00"> v1</text>
<text text-anchor="start" x="152" y="-1374.3" font-family="Times,serif" font-size="14.00"> written2 = v1</text>
<text text-anchor="start" x="152" y="-1359.3" font-family="Times,serif" font-size="14.00"> v2</text>
<text text-anchor="start" x="152" y="-1344.3" font-family="Times,serif" font-size="14.00"> written = v2</text>
<text text-anchor="start" x="152" y="-1329.3" font-family="Times,serif" font-size="14.00"> v3</text>
<text text-anchor="start" x="152" y="-1314.3" font-family="Times,serif" font-size="14.00"> fp = v3</text>
<text text-anchor="start" x="152" y="-1299.3" font-family="Times,serif" font-size="14.00"> written2 = 0</text>
<text text-anchor="start" x="152" y="-1284.3" font-family="Times,serif" font-size="14.00"> setbuf(g2, NULL)</text>
<text text-anchor="start" x="152" y="-1269.3" font-family="Times,serif" font-size="14.00"> file = fopen(&quot;flag.txt&quot;, &quot;r&quot;)</text>
</g>
<!-- Node0x1ec1e20&#45;&gt;Node0x1ec1c80 -->
<g id="edge1" class="edge"><title>Node0x1ec1e20&#45;&gt;Node0x1ec1c80</title>
<path fill="none" stroke="black" d="M248,-1487.16C248,-1479.15 248,-1469.78 248,-1459.81"/>
<polygon fill="black" stroke="black" points="251.5,-1459.67 248,-1449.67 244.5,-1459.67 251.5,-1459.67"/>
</g>
<!-- Node0x1ec9410 -->
<g id="node3" class="node"><title>Node0x1ec9410</title>
<polygon fill="none" stroke="black" points="176,-1187.5 176,-1223.5 320,-1223.5 320,-1187.5 176,-1187.5"/>
<text text-anchor="start" x="184" y="-1201.8" font-family="Times,serif" font-size="14.00">if (file == NULL):</text>
</g>
<!-- Node0x1ec1c80&#45;&gt;Node0x1ec9410 -->
<g id="edge2" class="edge"><title>Node0x1ec1c80&#45;&gt;Node0x1ec9410</title>
<path fill="none" stroke="black" d="M248,-1261.19C248,-1251.35 248,-1242 248,-1233.9"/>
<polygon fill="black" stroke="black" points="251.5,-1233.71 248,-1223.71 244.5,-1233.71 251.5,-1233.71"/>
</g>
<!-- Node0x1ef3a30 -->
<g id="node4" class="node"><title>Node0x1ef3a30</title>
<polygon fill="none" stroke="black" points="0,-845.5 0,-913.5 332,-913.5 332,-845.5 0,-845.5"/>
<text text-anchor="start" x="8" y="-898.3" font-family="Times,serif" font-size="14.00">0x80486e6:</text>
<text text-anchor="start" x="8" y="-883.3" font-family="Times,serif" font-size="14.00"> fwrite(&quot;Failed to open flag file\n&quot;, 1, 25, g1)</text>
<text text-anchor="start" x="8" y="-868.3" font-family="Times,serif" font-size="14.00"> exit(1)</text>
<text text-anchor="start" x="8" y="-853.3" font-family="Times,serif" font-size="14.00"> # UNREACHABLE</text>
</g>
<!-- Node0x1ec9410&#45;&gt;Node0x1ef3a30 -->
<g id="edge3" class="edge"><title>Node0x1ec9410&#45;&gt;Node0x1ef3a30</title>
<path fill="none" stroke="black" d="M192.826,-1187.37C185.001,-1182.62 177.947,-1176.61 173,-1169 124.337,-1094.15 140.027,-983.723 154.061,-923.51"/>
<polygon fill="black" stroke="black" points="157.513,-924.124 156.467,-913.581 150.71,-922.475 157.513,-924.124"/>
<text text-anchor="middle" x="222.5" y="-1157.8" font-family="Times,serif" font-size="14.00">file == NULL</text>
</g>
<!-- Node0x1ed1a40 -->
<g id="node5" class="node"><title>Node0x1ed1a40</title>
<polygon fill="none" stroke="black" points="194,-932.5 194,-1135.5 556,-1135.5 556,-932.5 194,-932.5"/>
<text text-anchor="start" x="202" y="-1120.3" font-family="Times,serif" font-size="14.00">0x8048707:</text>
<text text-anchor="start" x="202" y="-1105.3" font-family="Times,serif" font-size="14.00"> fscanf(file, &quot;%39s&quot;, &amp;(fp))</text>
<text text-anchor="start" x="202" y="-1090.3" font-family="Times,serif" font-size="14.00"> puts(&quot;Enter the flag\n&quot;)</text>
<text text-anchor="start" x="202" y="-1075.3" font-family="Times,serif" font-size="14.00"> scanf(&quot;%39s&quot;, &amp;(format))</text>
<text text-anchor="start" x="202" y="-1060.3" font-family="Times,serif" font-size="14.00"> written = PtrToIntCastExpr&lt;int32&gt;(&amp;(str3))</text>
<text text-anchor="start" x="202" y="-1045.3" font-family="Times,serif" font-size="14.00"> str3[0] = 89</text>
<text text-anchor="start" x="202" y="-1030.3" font-family="Times,serif" font-size="14.00"> str3[4] = 115</text>
<text text-anchor="start" x="202" y="-1015.3" font-family="Times,serif" font-size="14.00"> str3[8] = 32</text>
<text text-anchor="start" x="202" y="-1000.3" font-family="Times,serif" font-size="14.00"> v4 = written2</text>
<text text-anchor="start" x="202" y="-985.3" font-family="Times,serif" font-size="14.00"> written2 = (v4 + 9)</text>
<text text-anchor="start" x="202" y="-970.3" font-family="Times,serif" font-size="14.00"> chars_printed = snprintf(str, (247 &#45; v4), format)</text>
<text text-anchor="start" x="202" y="-955.3" font-family="Times,serif" font-size="14.00"> v5 = written2</text>
<text text-anchor="start" x="202" y="-940.3" font-family="Times,serif" font-size="14.00"> v6 = chars_printed</text>
</g>
<!-- Node0x1ec9410&#45;&gt;Node0x1ed1a40 -->
<g id="edge4" class="edge"><title>Node0x1ec9410&#45;&gt;Node0x1ed1a40</title>
<path fill="none" stroke="black" d="M260.876,-1187.31C269.168,-1176.25 280.727,-1160.82 293.329,-1144"/>
<polygon fill="black" stroke="black" points="296.394,-1145.75 299.589,-1135.65 290.792,-1141.55 296.394,-1145.75"/>
<text text-anchor="middle" x="332.5" y="-1157.8" font-family="Times,serif" font-size="14.00">file != NULL</text>
</g>
<!-- Node0x1ed2a70 -->
<g id="node6" class="node"><title>Node0x1ed2a70</title>
<polygon fill="none" stroke="black" points="170,-23.5 170,-59.5 224,-59.5 224,-23.5 170,-23.5"/>
<text text-anchor="start" x="178" y="-37.8" font-family="Times,serif" font-size="14.00">exit:</text>
</g>
<!-- Node0x1ef3a30&#45;&gt;Node0x1ed2a70 -->
<g id="edge5" class="edge"><title>Node0x1ef3a30&#45;&gt;Node0x1ed2a70</title>
<path fill="none" stroke="black" d="M166,-845.372C166,-822.849 166,-792.377 166,-765.5 166,-765.5 166,-765.5 166,-115.5 166,-98.9428 172.84,-81.8333 180.094,-68.3437"/>
<polygon fill="black" stroke="black" points="183.151,-70.0478 185.103,-59.6343 177.084,-66.5578 183.151,-70.0478"/>
</g>
<!-- Node0x1ee5c80 -->
<g id="node7" class="node"><title>Node0x1ee5c80</title>
<polygon fill="none" stroke="black" points="257.5,-790.5 257.5,-826.5 492.5,-826.5 492.5,-790.5 257.5,-790.5"/>
<text text-anchor="start" x="265.5" y="-804.8" font-family="Times,serif" font-size="14.00">if ((256 &#45; v5) &lt; chars_printed):</text>
</g>
<!-- Node0x1ed1a40&#45;&gt;Node0x1ee5c80 -->
<g id="edge6" class="edge"><title>Node0x1ed1a40&#45;&gt;Node0x1ee5c80</title>
<path fill="none" stroke="black" d="M375,-932.365C375,-897.399 375,-860.967 375,-836.945"/>
<polygon fill="black" stroke="black" points="378.5,-836.831 375,-826.831 371.5,-836.831 378.5,-836.831"/>
</g>
<!-- Node0x1edc330 -->
<g id="node8" class="node"><title>Node0x1edc330</title>
<polygon fill="none" stroke="black" points="324,-700.5 324,-738.5 452,-738.5 452,-700.5 324,-700.5"/>
<text text-anchor="start" x="332" y="-723.3" font-family="Times,serif" font-size="14.00">0x80487bd:</text>
<text text-anchor="start" x="332" y="-708.3" font-family="Times,serif" font-size="14.00"> v6 = (255 &#45; v5)</text>
</g>
<!-- Node0x1ee5c80&#45;&gt;Node0x1edc330 -->
<g id="edge7" class="edge"><title>Node0x1ee5c80&#45;&gt;Node0x1edc330</title>
<path fill="none" stroke="black" d="M344.626,-790.33C332.65,-781.203 323.188,-769.336 330,-757 332.488,-752.494 335.792,-748.468 339.565,-744.89"/>
<polygon fill="black" stroke="black" points="341.788,-747.593 347.307,-738.55 337.353,-742.178 341.788,-747.593"/>
<text text-anchor="middle" x="425" y="-760.8" font-family="Times,serif" font-size="14.00">(256 &#45; v5) &lt; chars_printed</text>
</g>
<!-- Node0x1f19e20 -->
<g id="node9" class="node"><title>Node0x1f19e20</title>
<polygon fill="none" stroke="black" points="283,-579.5 283,-662.5 699,-662.5 699,-579.5 283,-579.5"/>
<text text-anchor="start" x="291" y="-647.3" font-family="Times,serif" font-size="14.00">0x80487ce:</text>
<text text-anchor="start" x="291" y="-632.3" font-family="Times,serif" font-size="14.00"> written2 = (v6 + v5)</text>
<text text-anchor="start" x="291" y="-617.3" font-family="Times,serif" font-size="14.00"> strcmp_rc = strcmp(format, BitCastExpr&lt;ptr&gt;(&amp;(fp)))</text>
<text text-anchor="start" x="291" y="-602.3" font-family="Times,serif" font-size="14.00"> size = (256 &#45; written2)</text>
<text text-anchor="start" x="291" y="-587.3" font-family="Times,serif" font-size="14.00"> str2 = IntToPtrCastExpr&lt;ptr&gt;((written + written2))</text>
</g>
<!-- Node0x1ee5c80&#45;&gt;Node0x1f19e20 -->
<g id="edge8" class="edge"><title>Node0x1ee5c80&#45;&gt;Node0x1f19e20</title>
<path fill="none" stroke="black" d="M482.4,-790.422C499.86,-785.526 514.16,-779.442 520,-772 542.131,-743.797 532.81,-703.563 519.079,-671.863"/>
<polygon fill="black" stroke="black" points="522.251,-670.383 514.909,-662.744 515.885,-673.294 522.251,-670.383"/>
<text text-anchor="middle" x="634" y="-715.8" font-family="Times,serif" font-size="14.00">(256 &#45; v5) &gt;= chars_printed</text>
</g>
<!-- Node0x1edc330&#45;&gt;Node0x1f19e20 -->
<g id="edge9" class="edge"><title>Node0x1edc330&#45;&gt;Node0x1f19e20</title>
<path fill="none" stroke="black" d="M407.374,-700.349C416.647,-691.66 428.235,-680.804 439.803,-669.966"/>
<polygon fill="black" stroke="black" points="442.472,-672.261 447.377,-662.87 437.686,-667.153 442.472,-672.261"/>
</g>
<!-- Node0x1edb960 -->
<g id="node10" class="node"><title>Node0x1edb960</title>
<polygon fill="none" stroke="black" points="410.5,-503.5 410.5,-541.5 571.5,-541.5 571.5,-503.5 410.5,-503.5"/>
<text text-anchor="start" x="418.5" y="-526.3" font-family="Times,serif" font-size="14.00">if (strcmp_rc == 0):</text>
<text text-anchor="start" x="418.5" y="-511.3" font-family="Times,serif" font-size="14.00"> else:</text>
</g>
<!-- Node0x1f19e20&#45;&gt;Node0x1edb960 -->
<g id="edge10" class="edge"><title>Node0x1f19e20&#45;&gt;Node0x1edb960</title>
<path fill="none" stroke="black" d="M491,-579.355C491,-570.083 491,-560.427 491,-551.803"/>
<polygon fill="black" stroke="black" points="494.5,-551.538 491,-541.538 487.5,-551.538 494.5,-551.538"/>
</g>
<!-- Node0x1ef3b10 -->
<g id="node11" class="node"><title>Node0x1ef3b10</title>
<polygon fill="none" stroke="black" points="264.5,-413.5 264.5,-451.5 587.5,-451.5 587.5,-413.5 264.5,-413.5"/>
<text text-anchor="start" x="272.5" y="-436.3" font-family="Times,serif" font-size="14.00">0x80487f7:</text>
<text text-anchor="start" x="272.5" y="-421.3" font-family="Times,serif" font-size="14.00"> snprintf(str2, size, &quot; which is correct!!\n&quot;)</text>
</g>
<!-- Node0x1edb960&#45;&gt;Node0x1ef3b10 -->
<g id="edge11" class="edge"><title>Node0x1edb960&#45;&gt;Node0x1ef3b10</title>
<path fill="none" stroke="black" d="M477.532,-503.266C468.294,-490.759 455.888,-473.963 445.563,-459.986"/>
<polygon fill="black" stroke="black" points="448.207,-457.674 439.451,-451.71 442.577,-461.833 448.207,-457.674"/>
<text text-anchor="middle" x="521" y="-473.8" font-family="Times,serif" font-size="14.00">strcmp_rc == 0</text>
</g>
<!-- Node0x1eca570 -->
<g id="node12" class="node"><title>Node0x1eca570</title>
<polygon fill="none" stroke="black" points="605.5,-413.5 605.5,-451.5 942.5,-451.5 942.5,-413.5 605.5,-413.5"/>
<text text-anchor="start" x="613.5" y="-436.3" font-family="Times,serif" font-size="14.00">0x8048824:</text>
<text text-anchor="start" x="613.5" y="-421.3" font-family="Times,serif" font-size="14.00"> snprintf(str2, size, &quot; which is incorrect!!\n&quot;)</text>
</g>
<!-- Node0x1edb960&#45;&gt;Node0x1eca570 -->
<g id="edge12" class="edge"><title>Node0x1edb960&#45;&gt;Node0x1eca570</title>
<path fill="none" stroke="black" d="M548.952,-503.48C594.49,-489.319 658.013,-469.567 705.962,-454.657"/>
<polygon fill="black" stroke="black" points="707.13,-457.959 715.64,-451.647 705.051,-451.275 707.13,-457.959"/>
<text text-anchor="middle" x="704" y="-473.8" font-family="Times,serif" font-size="14.00">strcmp_rc != 0</text>
</g>
<!-- Node0x1eca9a0 -->
<g id="node13" class="node"><title>Node0x1eca9a0</title>
<polygon fill="none" stroke="black" points="447,-337.5 447,-375.5 545,-375.5 545,-337.5 447,-337.5"/>
<text text-anchor="start" x="455" y="-360.3" font-family="Times,serif" font-size="14.00">0x804884f:</text>
<text text-anchor="start" x="455" y="-345.3" font-family="Times,serif" font-size="14.00"> puts(str3)</text>
</g>
<!-- Node0x1ef3b10&#45;&gt;Node0x1eca9a0 -->
<g id="edge13" class="edge"><title>Node0x1ef3b10&#45;&gt;Node0x1eca9a0</title>
<path fill="none" stroke="black" d="M443.303,-413.208C451.95,-404.067 462.551,-392.86 471.973,-382.9"/>
<polygon fill="black" stroke="black" points="474.566,-385.252 478.896,-375.582 469.481,-380.441 474.566,-385.252"/>
</g>
<!-- Node0x1eca570&#45;&gt;Node0x1eca9a0 -->
<g id="edge14" class="edge"><title>Node0x1eca570&#45;&gt;Node0x1eca9a0</title>
<path fill="none" stroke="black" d="M706.349,-413.492C660.029,-401.162 599.206,-384.972 554.884,-373.174"/>
<polygon fill="black" stroke="black" points="555.688,-369.766 545.124,-370.576 553.888,-376.531 555.688,-369.766"/>
</g>
<!-- Node0x1f19f90 -->
<g id="node14" class="node"><title>Node0x1f19f90</title>
<polygon fill="none" stroke="black" points="240,-263.5 240,-299.5 752,-299.5 752,-263.5 240,-263.5"/>
<text text-anchor="start" x="248" y="-277.8" font-family="Times,serif" font-size="14.00">if (*(IntToPtrCastExpr&lt;ptr&gt;(20)) != *(IntToPtrCastExpr&lt;ptr&gt;(20))):</text>
</g>
<!-- Node0x1eca9a0&#45;&gt;Node0x1f19f90 -->
<g id="edge15" class="edge"><title>Node0x1eca9a0&#45;&gt;Node0x1f19f90</title>
<path fill="none" stroke="black" d="M496,-337.455C496,-329.201 496,-319.238 496,-310.074"/>
<polygon fill="black" stroke="black" points="499.5,-309.835 496,-299.835 492.5,-309.835 499.5,-309.835"/>
</g>
<!-- Node0x1eb29d0 -->
<g id="node15" class="node"><title>Node0x1eb29d0</title>
<polygon fill="none" stroke="black" points="193.5,-173.5 193.5,-211.5 342.5,-211.5 342.5,-173.5 193.5,-173.5"/>
<text text-anchor="start" x="201.5" y="-196.3" font-family="Times,serif" font-size="14.00">0x8048872:</text>
<text text-anchor="start" x="201.5" y="-181.3" font-family="Times,serif" font-size="14.00"> __stack_chk_fail()</text>
</g>
<!-- Node0x1f19f90&#45;&gt;Node0x1eb29d0 -->
<g id="edge16" class="edge"><title>Node0x1f19f90&#45;&gt;Node0x1eb29d0</title>
<path fill="none" stroke="black" d="M268.228,-263.432C252.744,-258.644 240.644,-252.605 234,-245 227.092,-237.093 230.456,-227.693 237.239,-219.101"/>
<polygon fill="black" stroke="black" points="240.035,-221.232 244.233,-211.504 234.885,-216.491 240.035,-221.232"/>
<text text-anchor="middle" x="467.5" y="-233.8" font-family="Times,serif" font-size="14.00">*(IntToPtrCastExpr&lt;ptr&gt;(20)) != *(IntToPtrCastExpr&lt;ptr&gt;(20))</text>
</g>
<!-- Node0x1eeba10 -->
<g id="node16" class="node"><title>Node0x1eeba10</title>
<polygon fill="none" stroke="black" points="217.5,-97.5 217.5,-135.5 318.5,-135.5 318.5,-97.5 217.5,-97.5"/>
<text text-anchor="start" x="225.5" y="-120.3" font-family="Times,serif" font-size="14.00">0x8048877:</text>
<text text-anchor="start" x="225.5" y="-105.3" font-family="Times,serif" font-size="14.00"> return 0</text>
</g>
<!-- Node0x1f19f90&#45;&gt;Node0x1eeba10 -->
<g id="edge17" class="edge"><title>Node0x1f19f90&#45;&gt;Node0x1eeba10</title>
<path fill="none" stroke="black" d="M664.394,-263.394C681.254,-258.68 694.545,-252.668 701,-245 705.293,-239.9 705.078,-235.274 701,-230 655.602,-171.299 436.728,-137.55 328.647,-124.209"/>
<polygon fill="black" stroke="black" points="328.892,-120.713 318.543,-122.982 328.048,-127.662 328.892,-120.713"/>
<text text-anchor="middle" x="913.5" y="-188.8" font-family="Times,serif" font-size="14.00">*(IntToPtrCastExpr&lt;ptr&gt;(20)) == *(IntToPtrCastExpr&lt;ptr&gt;(20))</text>
</g>
<!-- Node0x1eb29d0&#45;&gt;Node0x1eeba10 -->
<g id="edge18" class="edge"><title>Node0x1eb29d0&#45;&gt;Node0x1eeba10</title>
<path fill="none" stroke="black" d="M268,-173.208C268,-164.964 268,-155.038 268,-145.862"/>
<polygon fill="black" stroke="black" points="271.5,-145.582 268,-135.582 264.5,-145.582 271.5,-145.582"/>
</g>
<!-- Node0x1eeba10&#45;&gt;Node0x1ed2a70 -->
<g id="edge19" class="edge"><title>Node0x1eeba10&#45;&gt;Node0x1ed2a70</title>
<path fill="none" stroke="black" d="M250.449,-97.4551C241.549,-88.3035 230.605,-77.0516 220.943,-67.1177"/>
<polygon fill="black" stroke="black" points="223.341,-64.563 213.86,-59.8347 218.323,-69.4436 223.341,-64.563"/>
</g>
</g>
</svg>
