<?xml version="1.0" encoding="UTF-8" standalone="no"?>
<!DOCTYPE svg PUBLIC "-//W3C//DTD SVG 1.1//EN"
 "http://www.w3.org/Graphics/SVG/1.1/DTD/svg11.dtd">
<!-- Generated by graphviz version 2.38.0 (20140413.2041)
 -->
<!-- Title: Call graph of the module. Pages: 1 -->
<svg width="848pt" height="180pt"
 viewBox="0.00 0.00 847.50 180.00" xmlns="http://www.w3.org/2000/svg" xmlns:xlink="http://www.w3.org/1999/xlink">
<g id="graph0" class="graph" transform="scale(1 1) rotate(0) translate(4 176)">
<title>Call graph of the module.</title>
<polygon fill="white" stroke="none" points="-4,4 -4,-176 843.5,-176 843.5,4 -4,4"/>
<text text-anchor="middle" x="419.75" y="-7.8" font-family="Times,serif" font-size="14.00">Call graph of module /home/saurabh/Desktop/CS628A&#45;CTF&#45;1&#45;master/6/auth.c.</text>
<g id="clust1" class="cluster"><title>cluster_2fhome2fsaurabh2fDesktop2fCS363238A_CTF_31_master2f362fauth_c</title>
<polygon fill="none" stroke="#0000cd" points="257,-88 257,-164 670,-164 670,-88 257,-88"/>
<text text-anchor="middle" x="463.5" y="-148.8" font-family="Times,serif" font-size="14.00" fill="#0000cd">/home/saurabh/Desktop/CS628A&#45;CTF&#45;1&#45;master/6/auth.c</text>
</g>
<!-- Node_main -->
<g id="node1" class="node"><title>Node_main</title>
<polygon fill="none" stroke="black" points="436,-96.5 436,-132.5 490,-132.5 490,-96.5 436,-96.5"/>
<text text-anchor="middle" x="463" y="-110.8" font-family="Times,serif" font-size="14.00">main</text>
</g>
<!-- Node_setbuf -->
<g id="node2" class="node"><title>Node_setbuf</title>
<polygon fill="none" stroke="#7f7f7f" points="0,-23.5 0,-59.5 62,-59.5 62,-23.5 0,-23.5"/>
<text text-anchor="middle" x="31" y="-37.8" font-family="Times,serif" font-size="14.00" fill="#7f7f7f">setbuf</text>
</g>
<!-- Node_main&#45;&gt;Node_setbuf -->
<g id="edge1" class="edge"><title>Node_main&#45;&gt;Node_setbuf</title>
<path fill="none" stroke="black" d="M435.862,-112.375C372.927,-109.226 212.335,-98.0855 72.1947,-59.8961"/>
<polygon fill="black" stroke="black" points="72.7138,-56.4076 62.1416,-57.0994 70.8377,-63.1516 72.7138,-56.4076"/>
</g>
<!-- Node_strcmp -->
<g id="node3" class="node"><title>Node_strcmp</title>
<polygon fill="none" stroke="#7f7f7f" points="80,-23.5 80,-59.5 148,-59.5 148,-23.5 80,-23.5"/>
<text text-anchor="middle" x="114" y="-37.8" font-family="Times,serif" font-size="14.00" fill="#7f7f7f">strcmp</text>
</g>
<!-- Node_main&#45;&gt;Node_strcmp -->
<g id="edge2" class="edge"><title>Node_main&#45;&gt;Node_strcmp</title>
<path fill="none" stroke="black" d="M435.96,-110.736C383.654,-104.975 265.037,-89.8872 157.719,-59.8759"/>
<polygon fill="black" stroke="black" points="158.611,-56.491 148.035,-57.1177 156.694,-63.2232 158.611,-56.491"/>
</g>
<!-- Node_fscanf -->
<g id="node4" class="node"><title>Node_fscanf</title>
<polygon fill="none" stroke="#7f7f7f" points="166,-23.5 166,-59.5 226,-59.5 226,-23.5 166,-23.5"/>
<text text-anchor="middle" x="196" y="-37.8" font-family="Times,serif" font-size="14.00" fill="#7f7f7f">fscanf</text>
</g>
<!-- Node_main&#45;&gt;Node_fscanf -->
<g id="edge3" class="edge"><title>Node_main&#45;&gt;Node_fscanf</title>
<path fill="none" stroke="black" d="M435.857,-108.872C394.421,-101.438 312.914,-85.3595 235.864,-59.9584"/>
<polygon fill="black" stroke="black" points="236.599,-56.5134 226.005,-56.648 234.371,-63.1493 236.599,-56.5134"/>
</g>
<!-- Node___stack_chk_fail -->
<g id="node5" class="node"><title>Node___stack_chk_fail</title>
<polygon fill="none" stroke="#7f7f7f" points="244,-23.5 244,-59.5 378,-59.5 378,-23.5 244,-23.5"/>
<text text-anchor="middle" x="311" y="-37.8" font-family="Times,serif" font-size="14.00" fill="#7f7f7f">__stack_chk_fail</text>
</g>
<!-- Node_main&#45;&gt;Node___stack_chk_fail -->
<g id="edge4" class="edge"><title>Node_main&#45;&gt;Node___stack_chk_fail</title>
<path fill="none" stroke="black" d="M435.825,-100.807C413.922,-90.5756 382.637,-75.962 356.867,-63.9246"/>
<polygon fill="black" stroke="black" points="358.191,-60.6803 347.65,-59.6192 355.229,-67.0225 358.191,-60.6803"/>
</g>
<!-- Node_fwrite -->
<g id="node6" class="node"><title>Node_fwrite</title>
<polygon fill="none" stroke="#7f7f7f" points="396.5,-23.5 396.5,-59.5 455.5,-59.5 455.5,-23.5 396.5,-23.5"/>
<text text-anchor="middle" x="426" y="-37.8" font-family="Times,serif" font-size="14.00" fill="#7f7f7f">fwrite</text>
</g>
<!-- Node_main&#45;&gt;Node_fwrite -->
<g id="edge5" class="edge"><title>Node_main&#45;&gt;Node_fwrite</title>
<path fill="none" stroke="black" d="M454.043,-96.3129C449.68,-87.9407 444.342,-77.6971 439.499,-68.4026"/>
<polygon fill="black" stroke="black" points="442.599,-66.7794 434.874,-59.5288 436.392,-70.0144 442.599,-66.7794"/>
</g>
<!-- Node_puts -->
<g id="node7" class="node"><title>Node_puts</title>
<polygon fill="none" stroke="#7f7f7f" points="474,-23.5 474,-59.5 528,-59.5 528,-23.5 474,-23.5"/>
<text text-anchor="middle" x="501" y="-37.8" font-family="Times,serif" font-size="14.00" fill="#7f7f7f">puts</text>
</g>
<!-- Node_main&#45;&gt;Node_puts -->
<g id="edge6" class="edge"><title>Node_main&#45;&gt;Node_puts</title>
<path fill="none" stroke="black" d="M472.199,-96.3129C476.68,-87.9407 482.162,-77.6971 487.137,-68.4026"/>
<polygon fill="black" stroke="black" points="490.253,-69.9971 491.886,-59.5288 484.081,-66.6939 490.253,-69.9971"/>
</g>
<!-- Node_exit -->
<g id="node8" class="node"><title>Node_exit</title>
<polygon fill="none" stroke="#7f7f7f" points="546,-23.5 546,-59.5 600,-59.5 600,-23.5 546,-23.5"/>
<text text-anchor="middle" x="573" y="-37.8" font-family="Times,serif" font-size="14.00" fill="#7f7f7f">exit</text>
</g>
<!-- Node_main&#45;&gt;Node_exit -->
<g id="edge7" class="edge"><title>Node_main&#45;&gt;Node_exit</title>
<path fill="none" stroke="black" d="M489.348,-96.4937C503.935,-87.0785 522.252,-75.2554 538.025,-65.0748"/>
<polygon fill="black" stroke="black" points="539.982,-67.9773 546.486,-59.6136 536.186,-62.096 539.982,-67.9773"/>
</g>
<!-- Node_fopen -->
<g id="node9" class="node"><title>Node_fopen</title>
<polygon fill="none" stroke="#7f7f7f" points="618,-23.5 618,-59.5 674,-59.5 674,-23.5 618,-23.5"/>
<text text-anchor="middle" x="646" y="-37.8" font-family="Times,serif" font-size="14.00" fill="#7f7f7f">fopen</text>
</g>
<!-- Node_main&#45;&gt;Node_fopen -->
<g id="edge8" class="edge"><title>Node_main&#45;&gt;Node_fopen</title>
<path fill="none" stroke="black" d="M490.193,-104.362C517.884,-94.8782 562.182,-79.2144 608.542,-60.0263"/>
<polygon fill="black" stroke="black" points="609.959,-63.2273 617.837,-56.1425 607.26,-56.7685 609.959,-63.2273"/>
</g>
<!-- Node_snprintf -->
<g id="node10" class="node"><title>Node_snprintf</title>
<polygon fill="none" stroke="#7f7f7f" points="692,-23.5 692,-59.5 766,-59.5 766,-23.5 692,-23.5"/>
<text text-anchor="middle" x="729" y="-37.8" font-family="Times,serif" font-size="14.00" fill="#7f7f7f">snprintf</text>
</g>
<!-- Node_main&#45;&gt;Node_snprintf -->
<g id="edge9" class="edge"><title>Node_main&#45;&gt;Node_snprintf</title>
<path fill="none" stroke="black" d="M490.049,-108.062C530.139,-99.7586 607.78,-82.7423 682.424,-59.989"/>
<polygon fill="black" stroke="black" points="683.459,-63.3325 691.982,-57.0383 681.394,-56.644 683.459,-63.3325"/>
</g>
<!-- Node_scanf -->
<g id="node11" class="node"><title>Node_scanf</title>
<polygon fill="none" stroke="#7f7f7f" points="784.5,-23.5 784.5,-59.5 839.5,-59.5 839.5,-23.5 784.5,-23.5"/>
<text text-anchor="middle" x="812" y="-37.8" font-family="Times,serif" font-size="14.00" fill="#7f7f7f">scanf</text>
</g>
<!-- Node_main&#45;&gt;Node_scanf -->
<g id="edge10" class="edge"><title>Node_main&#45;&gt;Node_scanf</title>
<path fill="none" stroke="black" d="M490.295,-111.33C545.271,-106.417 672.805,-92.264 775,-60 775.097,-59.9692 775.195,-59.9383 775.292,-59.9071"/>
<polygon fill="black" stroke="black" points="776.282,-63.2729 784.447,-56.5213 773.854,-56.7075 776.282,-63.2729"/>
</g>
</g>
</svg>
