<?xml version="1.0" encoding="UTF-8" standalone="no"?>
<!DOCTYPE svg PUBLIC "-//W3C//DTD SVG 1.1//EN"
 "http://www.w3.org/Graphics/SVG/1.1/DTD/svg11.dtd">
<!-- Generated by graphviz version 2.38.0 (20140413.2041)
 -->
<!-- Title: Call graph of the module. Pages: 1 -->
<svg width="607pt" height="141pt"
 viewBox="0.00 0.00 606.50 141.00" xmlns="http://www.w3.org/2000/svg" xmlns:xlink="http://www.w3.org/1999/xlink">
<g id="graph0" class="graph" transform="scale(1 1) rotate(0) translate(4 137)">
<title>Call graph of the module.</title>
<polygon fill="white" stroke="none" points="-4,4 -4,-137 602.5,-137 602.5,4 -4,4"/>
<text text-anchor="middle" x="299.25" y="-7.8" font-family="Times,serif" font-size="14.00">Call graph of the module.</text>
<!-- Node_main -->
<g id="node1" class="node"><title>Node_main</title>
<polygon fill="none" stroke="black" points="308,-96.5 308,-132.5 362,-132.5 362,-96.5 308,-96.5"/>
<text text-anchor="middle" x="335" y="-110.8" font-family="Times,serif" font-size="14.00">main</text>
</g>
<!-- Node_setbuf -->
<g id="node2" class="node"><title>Node_setbuf</title>
<polygon fill="none" stroke="#7f7f7f" points="0,-23.5 0,-59.5 62,-59.5 62,-23.5 0,-23.5"/>
<text text-anchor="middle" x="31" y="-37.8" font-family="Times,serif" font-size="14.00" fill="#7f7f7f">setbuf</text>
</g>
<!-- Node_main&#45;&gt;Node_setbuf -->
<g id="edge1" class="edge"><title>Node_main&#45;&gt;Node_setbuf</title>
<path fill="none" stroke="black" d="M307.918,-109.953C261.21,-103.424 162.547,-87.8267 71.8028,-59.9102"/>
<polygon fill="black" stroke="black" points="72.7902,-56.5519 62.2011,-56.8999 70.6961,-63.2313 72.7902,-56.5519"/>
</g>
<!-- Node_printf -->
<g id="node3" class="node"><title>Node_printf</title>
<polygon fill="none" stroke="#7f7f7f" points="80.5,-23.5 80.5,-59.5 137.5,-59.5 137.5,-23.5 80.5,-23.5"/>
<text text-anchor="middle" x="109" y="-37.8" font-family="Times,serif" font-size="14.00" fill="#7f7f7f">printf</text>
</g>
<!-- Node_main&#45;&gt;Node_printf -->
<g id="edge2" class="edge"><title>Node_main&#45;&gt;Node_printf</title>
<path fill="none" stroke="black" d="M307.807,-107.164C272.671,-98.677 209.566,-82.4167 147.412,-59.8673"/>
<polygon fill="black" stroke="black" points="148.445,-56.5179 137.852,-56.3451 146.025,-63.0863 148.445,-56.5179"/>
</g>
<!-- Node___stack_chk_fail -->
<g id="node4" class="node"><title>Node___stack_chk_fail</title>
<polygon fill="none" stroke="#7f7f7f" points="156,-23.5 156,-59.5 290,-59.5 290,-23.5 156,-23.5"/>
<text text-anchor="middle" x="223" y="-37.8" font-family="Times,serif" font-size="14.00" fill="#7f7f7f">__stack_chk_fail</text>
</g>
<!-- Node_main&#45;&gt;Node___stack_chk_fail -->
<g id="edge3" class="edge"><title>Node_main&#45;&gt;Node___stack_chk_fail</title>
<path fill="none" stroke="black" d="M308.173,-96.4937C293.321,-87.0785 274.671,-75.2554 258.611,-65.0748"/>
<polygon fill="black" stroke="black" points="260.316,-62.0117 249.996,-59.6136 256.568,-67.9238 260.316,-62.0117"/>
</g>
<!-- Node_puts -->
<g id="node5" class="node"><title>Node_puts</title>
<polygon fill="none" stroke="#7f7f7f" points="308,-23.5 308,-59.5 362,-59.5 362,-23.5 308,-23.5"/>
<text text-anchor="middle" x="335" y="-37.8" font-family="Times,serif" font-size="14.00" fill="#7f7f7f">puts</text>
</g>
<!-- Node_main&#45;&gt;Node_puts -->
<g id="edge4" class="edge"><title>Node_main&#45;&gt;Node_puts</title>
<path fill="none" stroke="black" d="M335,-96.3129C335,-88.2895 335,-78.5475 335,-69.5691"/>
<polygon fill="black" stroke="black" points="338.5,-69.5288 335,-59.5288 331.5,-69.5289 338.5,-69.5288"/>
</g>
<!-- Node_system -->
<g id="node6" class="node"><title>Node_system</title>
<polygon fill="none" stroke="#7f7f7f" points="380,-23.5 380,-59.5 448,-59.5 448,-23.5 380,-23.5"/>
<text text-anchor="middle" x="414" y="-37.8" font-family="Times,serif" font-size="14.00" fill="#7f7f7f">system</text>
</g>
<!-- Node_main&#45;&gt;Node_system -->
<g id="edge5" class="edge"><title>Node_main&#45;&gt;Node_system</title>
<path fill="none" stroke="black" d="M354.124,-96.3129C364.119,-87.3302 376.51,-76.1933 387.423,-66.3856"/>
<polygon fill="black" stroke="black" points="389.954,-68.8165 395.052,-59.5288 385.275,-63.6101 389.954,-68.8165"/>
</g>
<!-- Node_strlen -->
<g id="node7" class="node"><title>Node_strlen</title>
<polygon fill="none" stroke="#7f7f7f" points="466.5,-23.5 466.5,-59.5 525.5,-59.5 525.5,-23.5 466.5,-23.5"/>
<text text-anchor="middle" x="496" y="-37.8" font-family="Times,serif" font-size="14.00" fill="#7f7f7f">strlen</text>
</g>
<!-- Node_main&#45;&gt;Node_strlen -->
<g id="edge6" class="edge"><title>Node_main&#45;&gt;Node_strlen</title>
<path fill="none" stroke="black" d="M362.164,-101.667C386.907,-90.8694 424.443,-74.4426 457,-60 457.093,-59.9586 457.187,-59.9172 457.28,-59.8757"/>
<polygon fill="black" stroke="black" points="458.49,-63.1683 466.201,-55.9026 455.642,-56.7738 458.49,-63.1683"/>
</g>
<!-- Node_scanf -->
<g id="node8" class="node"><title>Node_scanf</title>
<polygon fill="none" stroke="#7f7f7f" points="543.5,-23.5 543.5,-59.5 598.5,-59.5 598.5,-23.5 543.5,-23.5"/>
<text text-anchor="middle" x="571" y="-37.8" font-family="Times,serif" font-size="14.00" fill="#7f7f7f">scanf</text>
</g>
<!-- Node_main&#45;&gt;Node_scanf -->
<g id="edge7" class="edge"><title>Node_main&#45;&gt;Node_scanf</title>
<path fill="none" stroke="black" d="M362.036,-107.992C399.13,-100.069 467.878,-84.0725 533.645,-60.1852"/>
<polygon fill="black" stroke="black" points="535.159,-63.3569 543.322,-56.6036 532.729,-56.7921 535.159,-63.3569"/>
</g>
</g>
</svg>
