<?xml version="1.0" encoding="UTF-8" standalone="no"?>
<!DOCTYPE svg PUBLIC "-//W3C//DTD SVG 1.1//EN"
 "http://www.w3.org/Graphics/SVG/1.1/DTD/svg11.dtd">
<!-- Generated by graphviz version 2.38.0 (20140413.2041)
 -->
<!-- Title: Control&#45;flow graph for function &#39;main(argc, **argv)&#39;. Pages: 1 -->
<svg width="4216pt" height="1632pt"
 viewBox="0.00 0.00 4216.00 1632.00" xmlns="http://www.w3.org/2000/svg" xmlns:xlink="http://www.w3.org/1999/xlink">
<g id="graph0" class="graph" transform="scale(1 1) rotate(0) translate(4 1628)">
<title>Control&#45;flow graph for function &#39;main(argc, **argv)&#39;.</title>
<polygon fill="white" stroke="none" points="-4,4 -4,-1628 4212,-1628 4212,4 -4,4"/>
<text text-anchor="middle" x="2104" y="-7.8" font-family="Times,serif" font-size="14.00">Control&#45;flow graph for function &#39;main(argc, **argv)&#39;.</text>
<!-- Node0x1b9c920 -->
<g id="node1" class="node"><title>Node0x1b9c920</title>
<polygon fill="none" stroke="black" points="3780,-1570.5 3780,-1623.5 3839,-1623.5 3839,-1570.5 3780,-1570.5"/>
<text text-anchor="start" x="3788" y="-1608.3" font-family="Times,serif" font-size="14.00">entry:</text>
<text text-anchor="start" x="3788" y="-1593.3" font-family="Times,serif" font-size="14.00"> argc</text>
<text text-anchor="start" x="3788" y="-1578.3" font-family="Times,serif" font-size="14.00"> argv</text>
</g>
<!-- Node0x1b7a950 -->
<g id="node2" class="node"><title>Node0x1b7a950</title>
<polygon fill="none" stroke="black" points="3411,-1314.5 3411,-1532.5 4208,-1532.5 4208,-1314.5 3411,-1314.5"/>
<text text-anchor="start" x="3419" y="-1517.3" font-family="Times,serif" font-size="14.00">v1 = *(IntToPtrCastExpr&lt;ptr&gt;(20))</text>
<text text-anchor="start" x="3419" y="-1502.3" font-family="Times,serif" font-size="14.00"> str = 0</text>
<text text-anchor="start" x="3419" y="-1487.3" font-family="Times,serif" font-size="14.00"> setbuf(g1, NULL)</text>
<text text-anchor="start" x="3419" y="-1472.3" font-family="Times,serif" font-size="14.00"> str = 1852400175</text>
<text text-anchor="start" x="3419" y="-1457.3" font-family="Times,serif" font-size="14.00"> puts(&quot;============================================================&quot;)</text>
<text text-anchor="start" x="3419" y="-1442.3" font-family="Times,serif" font-size="14.00"> puts(&quot;EL&#45;ESS &#45;&#45; a drop&#45;in replacement for ls&quot;)</text>
<text text-anchor="start" x="3419" y="-1427.3" font-family="Times,serif" font-size="14.00"> puts(&quot;============================================================&quot;)</text>
<text text-anchor="start" x="3419" y="-1412.3" font-family="Times,serif" font-size="14.00"> printf(&quot;Enter path: &quot;)</text>
<text text-anchor="start" x="3419" y="-1397.3" font-family="Times,serif" font-size="14.00"> v2</text>
<text text-anchor="start" x="3419" y="-1382.3" font-family="Times,serif" font-size="14.00"> scanf(&quot;%16s&quot;, &amp;(v2))</text>
<text text-anchor="start" x="3419" y="-1367.3" font-family="Times,serif" font-size="14.00"> v3 = (strlen(BitCastExpr&lt;ptr&gt;(&amp;(str))) + PtrToIntCastExpr&lt;int32&gt;(&amp;(str)))</text>
<text text-anchor="start" x="3419" y="-1352.3" font-family="Times,serif" font-size="14.00"> v4 = IntToPtrCastExpr&lt;ptr&gt;(v3)</text>
<text text-anchor="start" x="3419" y="-1337.3" font-family="Times,serif" font-size="14.00"> v5 = 0</text>
<text text-anchor="start" x="3419" y="-1322.3" font-family="Times,serif" font-size="14.00"> v6</text>
</g>
<!-- Node0x1b9c920&#45;&gt;Node0x1b7a950 -->
<g id="edge1" class="edge"><title>Node0x1b9c920&#45;&gt;Node0x1b7a950</title>
<path fill="none" stroke="black" d="M3809.5,-1570.32C3809.5,-1562.34 3809.5,-1552.95 3809.5,-1542.85"/>
<polygon fill="black" stroke="black" points="3813,-1542.55 3809.5,-1532.55 3806,-1542.55 3813,-1542.55"/>
</g>
<!-- Node0x1b75630 -->
<g id="node3" class="node"><title>Node0x1b75630</title>
<polygon fill="none" stroke="black" points="3761,-1240.5 3761,-1276.5 3858,-1276.5 3858,-1240.5 3761,-1240.5"/>
<text text-anchor="start" x="3769" y="-1254.8" font-family="Times,serif" font-size="14.00">while True:</text>
</g>
<!-- Node0x1b7a950&#45;&gt;Node0x1b75630 -->
<g id="edge2" class="edge"><title>Node0x1b7a950&#45;&gt;Node0x1b75630</title>
<path fill="none" stroke="black" d="M3809.5,-1314.23C3809.5,-1304.2 3809.5,-1294.79 3809.5,-1286.68"/>
<polygon fill="black" stroke="black" points="3813,-1286.52 3809.5,-1276.52 3806,-1286.52 3813,-1286.52"/>
</g>
<!-- Node0x1bb0fd0 -->
<g id="node4" class="node"><title>Node0x1bb0fd0</title>
<polygon fill="none" stroke="black" points="3114,-1120.5 3114,-1188.5 3641,-1188.5 3641,-1120.5 3114,-1120.5"/>
<text text-anchor="start" x="3122" y="-1173.3" font-family="Times,serif" font-size="14.00">v7 = IntToPtrCastExpr&lt;ptr&gt;((v5 + PtrToIntCastExpr&lt;int32&gt;(&amp;(v2))))</text>
<text text-anchor="start" x="3122" y="-1158.3" font-family="Times,serif" font-size="14.00"> v8 = *(v7)</text>
<text text-anchor="start" x="3122" y="-1143.3" font-family="Times,serif" font-size="14.00"> v9 = v8</text>
<text text-anchor="start" x="3122" y="-1128.3" font-family="Times,serif" font-size="14.00"> v10 = v4</text>
</g>
<!-- Node0x1b75630&#45;&gt;Node0x1bb0fd0 -->
<g id="edge3" class="edge"><title>Node0x1b75630&#45;&gt;Node0x1bb0fd0</title>
<path fill="none" stroke="black" d="M3760.78,-1246C3704.38,-1232.68 3608.77,-1210.1 3527.15,-1190.83"/>
<polygon fill="black" stroke="black" points="3527.81,-1187.39 3517.27,-1188.5 3526.2,-1194.21 3527.81,-1187.39"/>
<text text-anchor="middle" x="3673.5" y="-1210.8" font-family="Times,serif" font-size="14.00">True</text>
</g>
<!-- Node0x1ba22b0 -->
<g id="node5" class="node"><title>Node0x1ba22b0</title>
<polygon fill="none" stroke="black" points="2430.5,-909.5 2430.5,-1082.5 2520.5,-1082.5 2520.5,-909.5 2430.5,-909.5"/>
<text text-anchor="start" x="2438.5" y="-1067.3" font-family="Times,serif" font-size="14.00">switch v8:</text>
<text text-anchor="start" x="2438.5" y="-1052.3" font-family="Times,serif" font-size="14.00"> case 0:</text>
<text text-anchor="start" x="2438.5" y="-1037.3" font-family="Times,serif" font-size="14.00"> case 39:</text>
<text text-anchor="start" x="2438.5" y="-1022.3" font-family="Times,serif" font-size="14.00"> default:</text>
<text text-anchor="start" x="2438.5" y="-1007.3" font-family="Times,serif" font-size="14.00"> case 34:</text>
<text text-anchor="start" x="2438.5" y="-992.3" font-family="Times,serif" font-size="14.00"> case 96:</text>
<text text-anchor="start" x="2438.5" y="-977.3" font-family="Times,serif" font-size="14.00"> case 36:</text>
<text text-anchor="start" x="2438.5" y="-962.3" font-family="Times,serif" font-size="14.00"> case 59:</text>
<text text-anchor="start" x="2438.5" y="-947.3" font-family="Times,serif" font-size="14.00"> case 124:</text>
<text text-anchor="start" x="2438.5" y="-932.3" font-family="Times,serif" font-size="14.00"> case 60:</text>
<text text-anchor="start" x="2438.5" y="-917.3" font-family="Times,serif" font-size="14.00"> case 62:</text>
</g>
<!-- Node0x1bb0fd0&#45;&gt;Node0x1ba22b0 -->
<g id="edge4" class="edge"><title>Node0x1bb0fd0&#45;&gt;Node0x1ba22b0</title>
<path fill="none" stroke="black" d="M3187.04,-1120.45C2978.92,-1084.34 2658.15,-1028.69 2530.57,-1006.56"/>
<polygon fill="black" stroke="black" points="2531.09,-1003.09 2520.64,-1004.83 2529.89,-1009.99 2531.09,-1003.09"/>
</g>
<!-- Node0x1bd4050 -->
<g id="node6" class="node"><title>Node0x1bd4050</title>
<polygon fill="none" stroke="black" points="0,-782 0,-850 271,-850 271,-782 0,-782"/>
<text text-anchor="start" x="8" y="-834.8" font-family="Times,serif" font-size="14.00">0x8048749:</text>
<text text-anchor="start" x="8" y="-819.8" font-family="Times,serif" font-size="14.00"> *(v4) = 0</text>
<text text-anchor="start" x="8" y="-804.8" font-family="Times,serif" font-size="14.00"> strlen(BitCastExpr&lt;ptr&gt;(&amp;(str)))</text>
<text text-anchor="start" x="8" y="-789.8" font-family="Times,serif" font-size="14.00"> system(BitCastExpr&lt;ptr&gt;(&amp;(str)))</text>
</g>
<!-- Node0x1ba22b0&#45;&gt;Node0x1bd4050 -->
<g id="edge5" class="edge"><title>Node0x1ba22b0&#45;&gt;Node0x1bd4050</title>
<path fill="none" stroke="black" d="M2430.18,-994.906C2211.41,-993.984 1242.87,-984.549 456.5,-891 377.472,-881.599 357.981,-876.179 280.5,-858 273.408,-856.336 266.144,-854.549 258.829,-852.686"/>
<polygon fill="black" stroke="black" points="259.391,-849.216 248.833,-850.101 257.638,-855.993 259.391,-849.216"/>
<text text-anchor="middle" x="486.5" y="-879.8" font-family="Times,serif" font-size="14.00">v8 == 0</text>
</g>
<!-- Node0x1b96a00 -->
<g id="node7" class="node"><title>Node0x1b96a00</title>
<polygon fill="none" stroke="black" points="289.5,-782 289.5,-850 599.5,-850 599.5,-782 289.5,-782"/>
<text text-anchor="start" x="297.5" y="-834.8" font-family="Times,serif" font-size="14.00">0x80486f0:</text>
<text text-anchor="start" x="297.5" y="-819.8" font-family="Times,serif" font-size="14.00"> *(v4) = 92</text>
<text text-anchor="start" x="297.5" y="-804.8" font-family="Times,serif" font-size="14.00"> v9 = *(v7)</text>
<text text-anchor="start" x="297.5" y="-789.8" font-family="Times,serif" font-size="14.00"> v10 = IntToPtrCastExpr&lt;ptr&gt;((v3 + 1))</text>
</g>
<!-- Node0x1ba22b0&#45;&gt;Node0x1b96a00 -->
<g id="edge6" class="edge"><title>Node0x1ba22b0&#45;&gt;Node0x1b96a00</title>
<path fill="none" stroke="black" d="M2430.19,-994.015C2157.03,-987.881 735.526,-953.154 552.5,-891 530.104,-883.394 508.07,-869.745 489.804,-856.221"/>
<polygon fill="black" stroke="black" points="491.765,-853.315 481.689,-850.039 487.523,-858.883 491.765,-853.315"/>
<text text-anchor="middle" x="587" y="-879.8" font-family="Times,serif" font-size="14.00">v8 == 39</text>
</g>
<!-- Node0x1b75f20 -->
<g id="node8" class="node"><title>Node0x1b75f20</title>
<polygon fill="none" stroke="black" points="2308,-653.5 2308,-736.5 2643,-736.5 2643,-653.5 2308,-653.5"/>
<text text-anchor="start" x="2316" y="-721.3" font-family="Times,serif" font-size="14.00">0x8048702_7:</text>
<text text-anchor="start" x="2316" y="-706.3" font-family="Times,serif" font-size="14.00"> v11 = (PtrToIntCastExpr&lt;int32&gt;(v10) + 1)</text>
<text text-anchor="start" x="2316" y="-691.3" font-family="Times,serif" font-size="14.00"> *(v10) = v9</text>
<text text-anchor="start" x="2316" y="-676.3" font-family="Times,serif" font-size="14.00"> v12 = (v5 + 1)</text>
<text text-anchor="start" x="2316" y="-661.3" font-family="Times,serif" font-size="14.00"> v6 = IntToPtrCastExpr&lt;ptr&gt;(v11)</text>
</g>
<!-- Node0x1ba22b0&#45;&gt;Node0x1b75f20 -->
<g id="edge7" class="edge"><title>Node0x1ba22b0&#45;&gt;Node0x1b75f20</title>
<path fill="none" stroke="black" d="M2430.11,-995.196C2159.8,-995.904 769.721,-992.94 644.5,-858 619.105,-830.634 618.669,-800.955 644.5,-774 701.099,-714.939 1848.7,-700.432 2297.65,-697.01"/>
<polygon fill="black" stroke="black" points="2297.82,-700.509 2307.8,-696.934 2297.77,-693.51 2297.82,-700.509"/>
<text text-anchor="middle" x="1150" y="-812.3" font-family="Times,serif" font-size="14.00">((((((((v8 != 0) and (v8 != 39)) and (v8 != 34)) and (v8 != 96)) and (v8 != 36)) and (v8 != 59)) and (v8 != 124)) and (v8 != 60)) and (v8 != 62)</text>
</g>
<!-- Node0x1b6ddf0 -->
<g id="node9" class="node"><title>Node0x1b6ddf0</title>
<polygon fill="none" stroke="black" points="1664.5,-774.5 1664.5,-857.5 1974.5,-857.5 1974.5,-774.5 1664.5,-774.5"/>
<text text-anchor="start" x="1672.5" y="-842.3" font-family="Times,serif" font-size="14.00">0x80486f0:</text>
<text text-anchor="start" x="1672.5" y="-827.3" font-family="Times,serif" font-size="14.00"> *(v4) = 92</text>
<text text-anchor="start" x="1672.5" y="-812.3" font-family="Times,serif" font-size="14.00"> v9 = *(v7)</text>
<text text-anchor="start" x="1672.5" y="-797.3" font-family="Times,serif" font-size="14.00"> v10 = IntToPtrCastExpr&lt;ptr&gt;((v3 + 1))</text>
<text text-anchor="start" x="1672.5" y="-782.3" font-family="Times,serif" font-size="14.00"> goto 0x8048702_7</text>
</g>
<!-- Node0x1ba22b0&#45;&gt;Node0x1b6ddf0 -->
<g id="edge8" class="edge"><title>Node0x1ba22b0&#45;&gt;Node0x1b6ddf0</title>
<path fill="none" stroke="black" d="M2430.41,-982.765C2338.78,-957.902 2126.93,-900.419 1978.55,-860.156"/>
<polygon fill="black" stroke="black" points="1979.43,-856.77 1968.87,-857.529 1977.6,-863.526 1979.43,-856.77"/>
<text text-anchor="middle" x="2123" y="-879.8" font-family="Times,serif" font-size="14.00">v8 == 34</text>
</g>
<!-- Node0x1b96960 -->
<g id="node10" class="node"><title>Node0x1b96960</title>
<polygon fill="none" stroke="black" points="1992.5,-774.5 1992.5,-857.5 2302.5,-857.5 2302.5,-774.5 1992.5,-774.5"/>
<text text-anchor="start" x="2000.5" y="-842.3" font-family="Times,serif" font-size="14.00">0x80486f0:</text>
<text text-anchor="start" x="2000.5" y="-827.3" font-family="Times,serif" font-size="14.00"> *(v4) = 92</text>
<text text-anchor="start" x="2000.5" y="-812.3" font-family="Times,serif" font-size="14.00"> v9 = *(v7)</text>
<text text-anchor="start" x="2000.5" y="-797.3" font-family="Times,serif" font-size="14.00"> v10 = IntToPtrCastExpr&lt;ptr&gt;((v3 + 1))</text>
<text text-anchor="start" x="2000.5" y="-782.3" font-family="Times,serif" font-size="14.00"> goto 0x8048702_7</text>
</g>
<!-- Node0x1ba22b0&#45;&gt;Node0x1b96960 -->
<g id="edge9" class="edge"><title>Node0x1ba22b0&#45;&gt;Node0x1b96960</title>
<path fill="none" stroke="black" d="M2430.24,-970.437C2378.96,-942.61 2294.31,-896.669 2230.97,-862.296"/>
<polygon fill="black" stroke="black" points="2232.64,-859.22 2222.18,-857.526 2229.3,-865.372 2232.64,-859.22"/>
<text text-anchor="middle" x="2316" y="-879.8" font-family="Times,serif" font-size="14.00">v8 == 96</text>
</g>
<!-- Node0x1ba4430 -->
<g id="node11" class="node"><title>Node0x1ba4430</title>
<polygon fill="none" stroke="black" points="2320.5,-774.5 2320.5,-857.5 2630.5,-857.5 2630.5,-774.5 2320.5,-774.5"/>
<text text-anchor="start" x="2328.5" y="-842.3" font-family="Times,serif" font-size="14.00">0x80486f0:</text>
<text text-anchor="start" x="2328.5" y="-827.3" font-family="Times,serif" font-size="14.00"> *(v4) = 92</text>
<text text-anchor="start" x="2328.5" y="-812.3" font-family="Times,serif" font-size="14.00"> v9 = *(v7)</text>
<text text-anchor="start" x="2328.5" y="-797.3" font-family="Times,serif" font-size="14.00"> v10 = IntToPtrCastExpr&lt;ptr&gt;((v3 + 1))</text>
<text text-anchor="start" x="2328.5" y="-782.3" font-family="Times,serif" font-size="14.00"> goto 0x8048702_7</text>
</g>
<!-- Node0x1ba22b0&#45;&gt;Node0x1ba4430 -->
<g id="edge10" class="edge"><title>Node0x1ba22b0&#45;&gt;Node0x1ba4430</title>
<path fill="none" stroke="black" d="M2475.5,-909.389C2475.5,-895.193 2475.5,-880.882 2475.5,-867.903"/>
<polygon fill="black" stroke="black" points="2479,-867.808 2475.5,-857.808 2472,-867.808 2479,-867.808"/>
<text text-anchor="middle" x="2510" y="-879.8" font-family="Times,serif" font-size="14.00">v8 == 36</text>
</g>
<!-- Node0x1b9dfc0 -->
<g id="node12" class="node"><title>Node0x1b9dfc0</title>
<polygon fill="none" stroke="black" points="2648.5,-774.5 2648.5,-857.5 2958.5,-857.5 2958.5,-774.5 2648.5,-774.5"/>
<text text-anchor="start" x="2656.5" y="-842.3" font-family="Times,serif" font-size="14.00">0x80486f0:</text>
<text text-anchor="start" x="2656.5" y="-827.3" font-family="Times,serif" font-size="14.00"> *(v4) = 92</text>
<text text-anchor="start" x="2656.5" y="-812.3" font-family="Times,serif" font-size="14.00"> v9 = *(v7)</text>
<text text-anchor="start" x="2656.5" y="-797.3" font-family="Times,serif" font-size="14.00"> v10 = IntToPtrCastExpr&lt;ptr&gt;((v3 + 1))</text>
<text text-anchor="start" x="2656.5" y="-782.3" font-family="Times,serif" font-size="14.00"> goto 0x8048702_7</text>
</g>
<!-- Node0x1ba22b0&#45;&gt;Node0x1b9dfc0 -->
<g id="edge11" class="edge"><title>Node0x1ba22b0&#45;&gt;Node0x1b9dfc0</title>
<path fill="none" stroke="black" d="M2520.76,-970.437C2572.04,-942.61 2656.69,-896.669 2720.03,-862.296"/>
<polygon fill="black" stroke="black" points="2721.7,-865.372 2728.82,-857.526 2718.36,-859.22 2721.7,-865.372"/>
<text text-anchor="middle" x="2722" y="-879.8" font-family="Times,serif" font-size="14.00">v8 == 59</text>
</g>
<!-- Node0x1b7a570 -->
<g id="node13" class="node"><title>Node0x1b7a570</title>
<polygon fill="none" stroke="black" points="2976.5,-774.5 2976.5,-857.5 3286.5,-857.5 3286.5,-774.5 2976.5,-774.5"/>
<text text-anchor="start" x="2984.5" y="-842.3" font-family="Times,serif" font-size="14.00">0x80486f0:</text>
<text text-anchor="start" x="2984.5" y="-827.3" font-family="Times,serif" font-size="14.00"> *(v4) = 92</text>
<text text-anchor="start" x="2984.5" y="-812.3" font-family="Times,serif" font-size="14.00"> v9 = *(v7)</text>
<text text-anchor="start" x="2984.5" y="-797.3" font-family="Times,serif" font-size="14.00"> v10 = IntToPtrCastExpr&lt;ptr&gt;((v3 + 1))</text>
<text text-anchor="start" x="2984.5" y="-782.3" font-family="Times,serif" font-size="14.00"> goto 0x8048702_7</text>
</g>
<!-- Node0x1ba22b0&#45;&gt;Node0x1b7a570 -->
<g id="edge12" class="edge"><title>Node0x1ba22b0&#45;&gt;Node0x1b7a570</title>
<path fill="none" stroke="black" d="M2520.59,-982.765C2612.22,-957.902 2824.07,-900.419 2972.45,-860.156"/>
<polygon fill="black" stroke="black" points="2973.4,-863.526 2982.13,-857.529 2971.57,-856.77 2973.4,-863.526"/>
<text text-anchor="middle" x="2939.5" y="-879.8" font-family="Times,serif" font-size="14.00">v8 == 124</text>
</g>
<!-- Node0x1bad5a0 -->
<g id="node14" class="node"><title>Node0x1bad5a0</title>
<polygon fill="none" stroke="black" points="3304.5,-774.5 3304.5,-857.5 3614.5,-857.5 3614.5,-774.5 3304.5,-774.5"/>
<text text-anchor="start" x="3312.5" y="-842.3" font-family="Times,serif" font-size="14.00">0x80486f0:</text>
<text text-anchor="start" x="3312.5" y="-827.3" font-family="Times,serif" font-size="14.00"> *(v4) = 92</text>
<text text-anchor="start" x="3312.5" y="-812.3" font-family="Times,serif" font-size="14.00"> v9 = *(v7)</text>
<text text-anchor="start" x="3312.5" y="-797.3" font-family="Times,serif" font-size="14.00"> v10 = IntToPtrCastExpr&lt;ptr&gt;((v3 + 1))</text>
<text text-anchor="start" x="3312.5" y="-782.3" font-family="Times,serif" font-size="14.00"> goto 0x8048702_7</text>
</g>
<!-- Node0x1ba22b0&#45;&gt;Node0x1bad5a0 -->
<g id="edge13" class="edge"><title>Node0x1ba22b0&#45;&gt;Node0x1bad5a0</title>
<path fill="none" stroke="black" d="M2520.62,-988.748C2643.42,-971.459 2993.95,-920.284 3293.99,-858.277"/>
<polygon fill="black" stroke="black" points="3295.11,-861.619 3304.19,-856.16 3293.69,-854.765 3295.11,-861.619"/>
<text text-anchor="middle" x="3219" y="-879.8" font-family="Times,serif" font-size="14.00">v8 == 60</text>
</g>
<!-- Node0x1bad710 -->
<g id="node15" class="node"><title>Node0x1bad710</title>
<polygon fill="none" stroke="black" points="3632.5,-774.5 3632.5,-857.5 3942.5,-857.5 3942.5,-774.5 3632.5,-774.5"/>
<text text-anchor="start" x="3640.5" y="-842.3" font-family="Times,serif" font-size="14.00">0x80486f0:</text>
<text text-anchor="start" x="3640.5" y="-827.3" font-family="Times,serif" font-size="14.00"> *(v4) = 92</text>
<text text-anchor="start" x="3640.5" y="-812.3" font-family="Times,serif" font-size="14.00"> v9 = *(v7)</text>
<text text-anchor="start" x="3640.5" y="-797.3" font-family="Times,serif" font-size="14.00"> v10 = IntToPtrCastExpr&lt;ptr&gt;((v3 + 1))</text>
<text text-anchor="start" x="3640.5" y="-782.3" font-family="Times,serif" font-size="14.00"> goto 0x8048702_7</text>
</g>
<!-- Node0x1ba22b0&#45;&gt;Node0x1bad710 -->
<g id="edge14" class="edge"><title>Node0x1ba22b0&#45;&gt;Node0x1bad710</title>
<path fill="none" stroke="black" d="M2520.66,-991.673C2674.23,-979.926 3190.19,-936.896 3622.35,-858.154"/>
<polygon fill="black" stroke="black" points="3623.02,-861.591 3632.23,-856.347 3621.76,-854.705 3623.02,-861.591"/>
<text text-anchor="middle" x="3534" y="-879.8" font-family="Times,serif" font-size="14.00">v8 == 62</text>
</g>
<!-- Node0x1b99090 -->
<g id="node16" class="node"><title>Node0x1b99090</title>
<polygon fill="none" stroke="black" points="175.5,-677 175.5,-713 485.5,-713 485.5,-677 175.5,-677"/>
<text text-anchor="start" x="183.5" y="-691.3" font-family="Times,serif" font-size="14.00">if (*(IntToPtrCastExpr&lt;ptr&gt;(20)) != v1):</text>
</g>
<!-- Node0x1bd4050&#45;&gt;Node0x1b99090 -->
<g id="edge15" class="edge"><title>Node0x1bd4050&#45;&gt;Node0x1b99090</title>
<path fill="none" stroke="black" d="M189.818,-781.852C223.01,-761.596 264.569,-736.235 293.884,-718.345"/>
<polygon fill="black" stroke="black" points="295.853,-721.244 302.566,-713.047 292.207,-715.268 295.853,-721.244"/>
</g>
<!-- Node0x1b96a00&#45;&gt;Node0x1b75f20 -->
<g id="edge16" class="edge"><title>Node0x1b96a00&#45;&gt;Node0x1b75f20</title>
<path fill="none" stroke="black" d="M525.566,-781.919C555.242,-771.313 589.414,-760.816 621.5,-755 783.17,-725.695 1865.31,-705.618 2297.61,-698.68"/>
<polygon fill="black" stroke="black" points="2297.75,-702.178 2307.7,-698.518 2297.64,-695.179 2297.75,-702.178"/>
</g>
<!-- Node0x1b76040 -->
<g id="node17" class="node"><title>Node0x1b76040</title>
<polygon fill="none" stroke="black" points="2420,-564.5 2420,-600.5 2531,-600.5 2531,-564.5 2420,-564.5"/>
<text text-anchor="start" x="2428" y="-578.8" font-family="Times,serif" font-size="14.00">if (v12 &gt; 15):</text>
</g>
<!-- Node0x1b75f20&#45;&gt;Node0x1b76040 -->
<g id="edge17" class="edge"><title>Node0x1b75f20&#45;&gt;Node0x1b76040</title>
<path fill="none" stroke="black" d="M2475.5,-653.481C2475.5,-639.237 2475.5,-623.584 2475.5,-610.701"/>
<polygon fill="black" stroke="black" points="2479,-610.622 2475.5,-600.622 2472,-610.622 2479,-610.622"/>
</g>
<!-- Node0x1b6ddf0&#45;&gt;Node0x1b75f20 -->
<g id="edge18" class="edge"><title>Node0x1b6ddf0&#45;&gt;Node0x1b75f20</title>
<path fill="none" stroke="black" d="M1974.8,-775.807C1977.72,-775.189 1980.62,-774.586 1983.5,-774 2087.03,-752.894 2203.8,-734.169 2297.59,-720.358"/>
<polygon fill="black" stroke="black" points="2298.37,-723.782 2307.75,-718.868 2297.35,-716.856 2298.37,-723.782"/>
</g>
<!-- Node0x1b96960&#45;&gt;Node0x1b75f20 -->
<g id="edge19" class="edge"><title>Node0x1b96960&#45;&gt;Node0x1b75f20</title>
<path fill="none" stroke="black" d="M2259.46,-774.38C2289.99,-763.305 2323.2,-751.256 2354.21,-740.003"/>
<polygon fill="black" stroke="black" points="2355.56,-743.239 2363.76,-736.538 2353.17,-736.659 2355.56,-743.239"/>
</g>
<!-- Node0x1ba4430&#45;&gt;Node0x1b75f20 -->
<g id="edge20" class="edge"><title>Node0x1ba4430&#45;&gt;Node0x1b75f20</title>
<path fill="none" stroke="black" d="M2475.5,-774.38C2475.5,-765.574 2475.5,-756.153 2475.5,-747.006"/>
<polygon fill="black" stroke="black" points="2479,-746.841 2475.5,-736.841 2472,-746.841 2479,-746.841"/>
</g>
<!-- Node0x1b9dfc0&#45;&gt;Node0x1b75f20 -->
<g id="edge21" class="edge"><title>Node0x1b9dfc0&#45;&gt;Node0x1b75f20</title>
<path fill="none" stroke="black" d="M2691.54,-774.38C2661.01,-763.305 2627.8,-751.256 2596.79,-740.003"/>
<polygon fill="black" stroke="black" points="2597.83,-736.659 2587.24,-736.538 2595.44,-743.239 2597.83,-736.659"/>
</g>
<!-- Node0x1b7a570&#45;&gt;Node0x1b75f20 -->
<g id="edge22" class="edge"><title>Node0x1b7a570&#45;&gt;Node0x1b75f20</title>
<path fill="none" stroke="black" d="M2976.2,-775.807C2973.28,-775.189 2970.38,-774.586 2967.5,-774 2863.97,-752.894 2747.2,-734.169 2653.41,-720.358"/>
<polygon fill="black" stroke="black" points="2653.65,-716.856 2643.25,-718.868 2652.63,-723.782 2653.65,-716.856"/>
</g>
<!-- Node0x1bad5a0&#45;&gt;Node0x1b75f20 -->
<g id="edge23" class="edge"><title>Node0x1bad5a0&#45;&gt;Node0x1b75f20</title>
<path fill="none" stroke="black" d="M3304.24,-775.558C3301.31,-775.016 3298.39,-774.496 3295.5,-774 3076.17,-736.371 2820.49,-715.667 2653.69,-705.217"/>
<polygon fill="black" stroke="black" points="2653.53,-701.7 2643.34,-704.574 2653.1,-708.686 2653.53,-701.7"/>
</g>
<!-- Node0x1bad710&#45;&gt;Node0x1b75f20 -->
<g id="edge24" class="edge"><title>Node0x1bad710&#45;&gt;Node0x1b75f20</title>
<path fill="none" stroke="black" d="M3632.26,-775.449C3629.32,-774.941 3626.4,-774.457 3623.5,-774 3283.16,-720.33 2880.33,-703.573 2653.69,-698.352"/>
<polygon fill="black" stroke="black" points="2653.44,-694.845 2643.37,-698.119 2653.28,-701.843 2653.44,-694.845"/>
</g>
<!-- Node0x1b89c80 -->
<g id="node18" class="node"><title>Node0x1b89c80</title>
<polygon fill="none" stroke="black" points="341,-563.5 341,-601.5 490,-601.5 490,-563.5 341,-563.5"/>
<text text-anchor="start" x="349" y="-586.3" font-family="Times,serif" font-size="14.00">0x80487ab:</text>
<text text-anchor="start" x="349" y="-571.3" font-family="Times,serif" font-size="14.00"> __stack_chk_fail()</text>
</g>
<!-- Node0x1b99090&#45;&gt;Node0x1b89c80 -->
<g id="edge25" class="edge"><title>Node0x1b99090&#45;&gt;Node0x1b89c80</title>
<path fill="none" stroke="black" d="M325.819,-676.893C322.48,-660.821 320.324,-636.793 331.5,-620 334.638,-615.284 338.53,-611.174 342.904,-607.592"/>
<polygon fill="black" stroke="black" points="345.096,-610.33 351.241,-601.699 341.055,-604.614 345.096,-610.33"/>
<text text-anchor="middle" x="464" y="-623.8" font-family="Times,serif" font-size="14.00">*(IntToPtrCastExpr&lt;ptr&gt;(20)) != v1</text>
</g>
<!-- Node0x1b730c0 -->
<g id="node19" class="node"><title>Node0x1b730c0</title>
<polygon fill="none" stroke="black" points="560,-458.5 560,-496.5 661,-496.5 661,-458.5 560,-458.5"/>
<text text-anchor="start" x="568" y="-481.3" font-family="Times,serif" font-size="14.00">0x80487b0:</text>
<text text-anchor="start" x="568" y="-466.3" font-family="Times,serif" font-size="14.00"> return 0</text>
</g>
<!-- Node0x1b99090&#45;&gt;Node0x1b730c0 -->
<g id="edge26" class="edge"><title>Node0x1b99090&#45;&gt;Node0x1b730c0</title>
<path fill="none" stroke="black" d="M477.151,-676.947C529.432,-667.751 579.601,-654.234 596.5,-635 627.502,-599.714 623.133,-541.095 616.95,-506.494"/>
<polygon fill="black" stroke="black" points="620.365,-505.721 615.01,-496.579 613.495,-507.065 620.365,-505.721"/>
<text text-anchor="middle" x="757" y="-578.8" font-family="Times,serif" font-size="14.00">*(IntToPtrCastExpr&lt;ptr&gt;(20)) == v1</text>
</g>
<!-- Node0x1b4aaf0 -->
<g id="node20" class="node"><title>Node0x1b4aaf0</title>
<polygon fill="none" stroke="black" points="2286.5,-458.5 2286.5,-496.5 2526.5,-496.5 2526.5,-458.5 2286.5,-458.5"/>
<text text-anchor="start" x="2294.5" y="-481.3" font-family="Times,serif" font-size="14.00">break (via goto) &#45;&gt; 0x8048749:</text>
<text text-anchor="start" x="2294.5" y="-466.3" font-family="Times,serif" font-size="14.00"> goto 0x8048749</text>
</g>
<!-- Node0x1b76040&#45;&gt;Node0x1b4aaf0 -->
<g id="edge27" class="edge"><title>Node0x1b76040&#45;&gt;Node0x1b4aaf0</title>
<path fill="none" stroke="black" d="M2464.11,-564.492C2453.27,-548.313 2436.8,-523.728 2424.24,-504.984"/>
<polygon fill="black" stroke="black" points="2427.08,-502.934 2418.61,-496.574 2421.27,-506.83 2427.08,-502.934"/>
<text text-anchor="middle" x="2481.5" y="-533.8" font-family="Times,serif" font-size="14.00">v12 &gt; 15</text>
</g>
<!-- Node0x1b6dd90 -->
<g id="node21" class="node"><title>Node0x1b6dd90</title>
<polygon fill="none" stroke="black" points="3224.5,-443.5 3224.5,-511.5 3310.5,-511.5 3310.5,-443.5 3224.5,-443.5"/>
<text text-anchor="start" x="3232.5" y="-496.3" font-family="Times,serif" font-size="14.00">v4 = v6</text>
<text text-anchor="start" x="3232.5" y="-481.3" font-family="Times,serif" font-size="14.00"> v5 = v12</text>
<text text-anchor="start" x="3232.5" y="-466.3" font-family="Times,serif" font-size="14.00"> v3 = v11</text>
<text text-anchor="start" x="3232.5" y="-451.3" font-family="Times,serif" font-size="14.00"> continue</text>
</g>
<!-- Node0x1b76040&#45;&gt;Node0x1b6dd90 -->
<g id="edge28" class="edge"><title>Node0x1b76040&#45;&gt;Node0x1b6dd90</title>
<path fill="none" stroke="black" d="M2531.19,-574.257C2677.35,-555.249 3070.51,-504.118 3214.08,-485.447"/>
<polygon fill="black" stroke="black" points="3214.92,-488.868 3224.38,-484.108 3214.01,-481.927 3214.92,-488.868"/>
<text text-anchor="middle" x="2910.5" y="-533.8" font-family="Times,serif" font-size="14.00">v12 &lt;= 15</text>
</g>
<!-- Node0x1b89c80&#45;&gt;Node0x1b730c0 -->
<g id="edge29" class="edge"><title>Node0x1b89c80&#45;&gt;Node0x1b730c0</title>
<path fill="none" stroke="black" d="M449.913,-563.323C482.533,-546.093 531.662,-520.142 566.986,-501.484"/>
<polygon fill="black" stroke="black" points="568.896,-504.434 576.103,-496.668 565.626,-498.244 568.896,-504.434"/>
</g>
<!-- Node0x1ba0540 -->
<g id="node22" class="node"><title>Node0x1ba0540</title>
<polygon fill="none" stroke="black" points="1341.5,-23.5 1341.5,-59.5 1395.5,-59.5 1395.5,-23.5 1341.5,-23.5"/>
<text text-anchor="start" x="1349.5" y="-37.8" font-family="Times,serif" font-size="14.00">exit:</text>
</g>
<!-- Node0x1b730c0&#45;&gt;Node0x1ba0540 -->
<g id="edge30" class="edge"><title>Node0x1b730c0&#45;&gt;Node0x1ba0540</title>
<path fill="none" stroke="black" d="M661.123,-474.568C825.615,-467.624 1334.5,-440.635 1334.5,-372.5 1334.5,-372.5 1334.5,-372.5 1334.5,-115.5 1334.5,-98.8017 1341.9,-81.7946 1349.8,-68.4017"/>
<polygon fill="black" stroke="black" points="1352.88,-70.0792 1355.26,-59.7552 1346.96,-66.3414 1352.88,-70.0792"/>
</g>
<!-- Node0x1b6c680 -->
<g id="node23" class="node"><title>Node0x1b6c680</title>
<polygon fill="none" stroke="black" points="1864,-337.5 1864,-405.5 2135,-405.5 2135,-337.5 1864,-337.5"/>
<text text-anchor="start" x="1872" y="-390.3" font-family="Times,serif" font-size="14.00">0x8048749:</text>
<text text-anchor="start" x="1872" y="-375.3" font-family="Times,serif" font-size="14.00"> *(v6) = 0</text>
<text text-anchor="start" x="1872" y="-360.3" font-family="Times,serif" font-size="14.00"> strlen(BitCastExpr&lt;ptr&gt;(&amp;(str)))</text>
<text text-anchor="start" x="1872" y="-345.3" font-family="Times,serif" font-size="14.00"> system(BitCastExpr&lt;ptr&gt;(&amp;(str)))</text>
</g>
<!-- Node0x1b4aaf0&#45;&gt;Node0x1b6c680 -->
<g id="edge31" class="edge"><title>Node0x1b4aaf0&#45;&gt;Node0x1b6c680</title>
<path fill="none" stroke="black" d="M2335.61,-458.385C2281.34,-444.517 2204.78,-424.956 2138.44,-408.004"/>
<polygon fill="black" stroke="black" points="2139.29,-404.607 2128.73,-405.522 2137.55,-411.389 2139.29,-404.607"/>
</g>
<!-- Node0x1b6dd90&#45;&gt;Node0x1b75630 -->
<g id="edge32" class="edge"><title>Node0x1b6dd90&#45;&gt;Node0x1b75630</title>
<path fill="none" stroke="black" d="M3310.68,-480.249C3463.63,-487.008 3970.5,-514.466 3970.5,-581.5 3970.5,-1155.5 3970.5,-1155.5 3970.5,-1155.5 3970.5,-1205.7 3913.96,-1232.22 3867.89,-1245.5"/>
<polygon fill="black" stroke="black" points="3866.97,-1242.13 3858.24,-1248.14 3868.81,-1248.88 3866.97,-1242.13"/>
</g>
<!-- Node0x1ba29d0 -->
<g id="node24" class="node"><title>Node0x1ba29d0</title>
<polygon fill="none" stroke="black" points="1572.5,-263.5 1572.5,-299.5 1882.5,-299.5 1882.5,-263.5 1572.5,-263.5"/>
<text text-anchor="start" x="1580.5" y="-277.8" font-family="Times,serif" font-size="14.00">if (*(IntToPtrCastExpr&lt;ptr&gt;(20)) != v1):</text>
</g>
<!-- Node0x1b6c680&#45;&gt;Node0x1ba29d0 -->
<g id="edge33" class="edge"><title>Node0x1b6c680&#45;&gt;Node0x1ba29d0</title>
<path fill="none" stroke="black" d="M1897.44,-337.482C1861.24,-325.769 1821.61,-312.948 1789.73,-302.634"/>
<polygon fill="black" stroke="black" points="1790.69,-299.266 1780.1,-299.518 1788.54,-305.927 1790.69,-299.266"/>
</g>
<!-- Node0x1bd5c40 -->
<g id="node25" class="node"><title>Node0x1bd5c40</title>
<polygon fill="none" stroke="black" points="1373,-173.5 1373,-211.5 1522,-211.5 1522,-173.5 1373,-173.5"/>
<text text-anchor="start" x="1381" y="-196.3" font-family="Times,serif" font-size="14.00">0x80487ab:</text>
<text text-anchor="start" x="1381" y="-181.3" font-family="Times,serif" font-size="14.00"> __stack_chk_fail()</text>
</g>
<!-- Node0x1ba29d0&#45;&gt;Node0x1bd5c40 -->
<g id="edge34" class="edge"><title>Node0x1ba29d0&#45;&gt;Node0x1bd5c40</title>
<path fill="none" stroke="black" d="M1572.22,-269.25C1513.16,-263.381 1457.72,-255.262 1448.5,-245 1442.95,-238.825 1441.3,-230.359 1441.44,-222.073"/>
<polygon fill="black" stroke="black" points="1444.95,-222.152 1442.42,-211.862 1437.98,-221.48 1444.95,-222.152"/>
<text text-anchor="middle" x="1581" y="-233.8" font-family="Times,serif" font-size="14.00">*(IntToPtrCastExpr&lt;ptr&gt;(20)) != v1</text>
</g>
<!-- Node0x1ba3600 -->
<g id="node26" class="node"><title>Node0x1ba3600</title>
<polygon fill="none" stroke="black" points="1397,-97.5 1397,-135.5 1498,-135.5 1498,-97.5 1397,-97.5"/>
<text text-anchor="start" x="1405" y="-120.3" font-family="Times,serif" font-size="14.00">0x80487b0:</text>
<text text-anchor="start" x="1405" y="-105.3" font-family="Times,serif" font-size="14.00"> return 0</text>
</g>
<!-- Node0x1ba29d0&#45;&gt;Node0x1ba3600 -->
<g id="edge35" class="edge"><title>Node0x1ba29d0&#45;&gt;Node0x1ba3600</title>
<path fill="none" stroke="black" d="M1726.47,-263.266C1725,-252.568 1721.54,-239.161 1713.5,-230 1660.15,-169.236 1568.45,-140.384 1507.89,-127.352"/>
<polygon fill="black" stroke="black" points="1508.58,-123.921 1498.08,-125.32 1507.16,-130.775 1508.58,-123.921"/>
<text text-anchor="middle" x="1830" y="-188.8" font-family="Times,serif" font-size="14.00">*(IntToPtrCastExpr&lt;ptr&gt;(20)) == v1</text>
</g>
<!-- Node0x1bd5c40&#45;&gt;Node0x1ba3600 -->
<g id="edge36" class="edge"><title>Node0x1bd5c40&#45;&gt;Node0x1ba3600</title>
<path fill="none" stroke="black" d="M1447.5,-173.208C1447.5,-164.964 1447.5,-155.038 1447.5,-145.862"/>
<polygon fill="black" stroke="black" points="1451,-145.582 1447.5,-135.582 1444,-145.582 1451,-145.582"/>
</g>
<!-- Node0x1ba3600&#45;&gt;Node0x1ba0540 -->
<g id="edge37" class="edge"><title>Node0x1ba3600&#45;&gt;Node0x1ba0540</title>
<path fill="none" stroke="black" d="M1427.97,-97.4551C1417.9,-88.1459 1405.47,-76.6632 1394.59,-66.6054"/>
<polygon fill="black" stroke="black" points="1396.71,-63.8011 1386.99,-59.585 1391.96,-68.9423 1396.71,-63.8011"/>
</g>
</g>
</svg>
